<?xml version="1.0" encoding="UTF-8"?>
<svg width="32" height="32" viewBox="0 0 32 32" fill="none" xmlns="http://www.w3.org/2000/svg">
  <!-- 背景圆形 -->
  <circle cx="16" cy="16" r="16" fill="#1890FF"/>
  
  <!-- JSON 文字 -->
  <path d="M8 8h3v16H8V8zm13 0h3v16h-3V8z" fill="white"/>
  <path d="M12 8h2v2h-2V8zm2 2h2v2h-2v-2zm2 0h2v2h-2v-2zm2 0h2v2h-2v-2zm2 0h2v2h-2v-2zm2 0h2v2h-2v-2zm-10 2h2v2h-2v-2zm2 0h2v2h-2v-2zm2 0h2v2h-2v-2zm2 0h2v2h-2v-2zm2 0h2v2h-2v-2zm-10 2h2v2h-2v-2zm2 0h2v2h-2v-2zm2 0h2v2h-2v-2zm2 0h2v2h-2v-2zm2 0h2v2h-2v-2z" fill="white"/>
</svg> 